<svg width="16" height="16" viewBox="0 0 16 16" fill="none" xmlns="http://www.w3.org/2000/svg">
<g id="Utility Icons / C / clear">
<path id="Icon" fill-rule="evenodd" clip-rule="evenodd" d="M7.99985 0.615356C3.90754 0.615356 0.615234 3.90766 0.615234 7.99997C0.615234 12.0923 3.90754 15.3846 7.99985 15.3846C12.0922 15.3846 15.3845 12.0923 15.3845 7.99997C15.3845 3.90766 12.0922 0.615356 7.99985 0.615356ZM9.50754 8.24613L11.9075 10.6461C12.0306 10.7692 12.0306 10.9538 11.9075 11.0769L11.046 11.9384C10.9229 12.0615 10.7383 12.0615 10.6152 11.9384L8.21523 9.53843C8.09216 9.41536 7.90754 9.41536 7.78447 9.53843L5.38447 11.9384C5.26139 12.0615 5.07677 12.0615 4.9537 11.9384L4.09216 11.0769C3.96908 10.9538 3.96908 10.7692 4.09216 10.6461L6.49216 8.24613C6.61523 8.12305 6.61523 7.93843 6.49216 7.81536L4.06139 5.38459C3.93831 5.26151 3.93831 5.07689 4.06139 4.95382L4.92293 4.09228C5.046 3.9692 5.23062 3.9692 5.3537 4.09228L7.78447 6.52305C7.90754 6.64613 8.09216 6.64613 8.21523 6.52305L10.6152 4.12305C10.7383 3.99997 10.9229 3.99997 11.046 4.12305L11.9075 4.98459C12.0306 5.10766 12.0306 5.29228 11.9075 5.41536L9.50754 7.81536C9.41523 7.93843 9.41523 8.12305 9.50754 8.24613Z" fill="#848E9C"/>
</g>
</svg>
