<svg width="16" height="16" viewBox="0 0 16 16" fill="none" xmlns="http://www.w3.org/2000/svg">
<g id="Utility Icons / S / search">
<path id="Icon" fill-rule="evenodd" clip-rule="evenodd" d="M15.261 13.9378L11.1379 9.84548C11.9687 8.67625 12.3995 7.19933 12.1841 5.6301C11.8148 2.98394 9.66099 0.891636 6.98407 0.645482C3.3533 0.276251 0.276378 3.35317 0.645609 7.01471C0.891763 9.66087 2.98407 11.8455 5.63022 12.2147C7.19945 12.4301 8.67638 11.9993 9.84561 11.1686L13.9379 15.2609C14.1225 15.4455 14.3995 15.4455 14.5841 15.2609L15.2302 14.6147C15.4148 14.4301 15.4148 14.1224 15.261 13.9378ZM2.46099 6.4301C2.46099 4.24548 4.24561 2.46087 6.43022 2.46087C8.61484 2.46087 10.3995 4.24548 10.3995 6.4301C10.3995 8.61471 8.61484 10.3993 6.43022 10.3993C4.24561 10.3993 2.46099 8.64548 2.46099 6.4301Z" fill="#848E9C"/>
</g>
</svg>
