<svg width="116" height="32" viewBox="0 0 116 32" fill="none" xmlns="http://www.w3.org/2000/svg">
<g id="nawy-blue-logo 2" clip-path="url(#clip0_3708_11542)">
<g id="Clip path group">
<mask id="mask0_3708_11542" style="mask-type:luminance" maskUnits="userSpaceOnUse" x="0" y="3" width="115" height="27">
<g id="clip0_8993_268772">
<path id="Vector" d="M114.716 3H0V29.9474H114.716V3Z" fill="white"/>
</g>
</mask>
<g mask="url(#mask0_3708_11542)">
<g id="Group">
<g id="Group 772">
<path id="Vector_2" d="M26.5753 3.02979C26.7813 3.02979 26.9579 3.0003 27.1345 3.0003C28.5176 3.0003 29.9303 3.0003 31.3135 3.0003C31.6666 2.97082 31.9903 3.14772 32.1375 3.44255C34.639 7.33431 37.1405 11.1965 39.642 15.0588C39.7597 15.2357 39.9069 15.4126 40.0246 15.619L40.1717 15.56V14.9409C40.1717 11.1671 40.1717 7.36378 40.1717 3.58996C40.1717 3.08875 40.3189 2.97082 40.7898 3.0003C42.3201 3.02979 43.8504 3.0003 45.4395 3.0003V24.228C45.263 24.228 45.0865 24.2575 44.8805 24.2575C43.4974 24.2575 42.0848 24.2575 40.7015 24.2575C40.3483 24.2869 40.0246 24.1101 39.8774 23.8152C37.3759 19.9235 34.845 16.0317 32.314 12.14C32.2258 11.9926 32.1081 11.8452 31.9903 11.6978L31.8432 11.7567V24.2575H26.5459L26.5753 3.02979Z" fill="white"/>
<path id="Vector_3" d="M89.7305 8.7195C89.1126 10.4295 88.5238 12.0806 87.9354 13.7316C86.7288 17.0632 85.4927 20.4242 84.286 23.7853C84.2272 24.1096 83.9036 24.316 83.5799 24.257C82.3733 24.2275 81.1666 24.2275 79.9306 24.257C79.5775 24.316 79.2245 24.0801 79.1656 23.7263C78.312 21.2203 77.429 18.7142 76.5464 16.2082C76.4875 16.0018 76.3989 15.8249 76.2812 15.4711C76.1341 15.8544 76.0458 16.0607 75.987 16.2966C75.1338 18.7732 74.2508 21.2497 73.4266 23.7263C73.3677 24.0801 73.0441 24.316 72.7205 24.257C71.4844 24.2275 70.2189 24.2275 68.9829 24.257C68.7181 24.316 68.4533 24.139 68.3646 23.8737C66.5695 18.9206 64.7745 13.9675 62.9496 9.04379C62.9202 8.95537 62.9202 8.86691 62.8613 8.7195C63.0677 8.7195 63.2148 8.69003 63.3913 8.69003C64.7451 8.69003 66.0694 8.7195 67.3937 8.69003C67.7468 8.63104 68.041 8.86691 68.0998 9.1912C68.924 11.8742 69.7482 14.5571 70.572 17.2106C70.6308 17.4464 70.7191 17.6823 70.8368 18.0361C70.925 17.8297 70.9839 17.7118 71.0133 17.5939C71.9257 14.7635 72.8382 11.9626 73.7208 9.13226C73.78 8.80796 74.0742 8.60156 74.3979 8.63104H74.4273C75.6339 8.66055 76.8406 8.66055 78.0767 8.63104C78.518 8.63104 78.6651 8.77845 78.7828 9.16173C79.6658 11.9331 80.5488 14.675 81.4314 17.417C81.4903 17.5644 81.5491 17.7413 81.6668 18.0361C82.1085 16.5914 82.5204 15.3237 82.9323 14.0264C83.4623 12.3754 83.9624 10.7243 84.492 9.04379C84.5807 8.77845 84.6395 8.60156 84.9925 8.60156C86.464 8.60156 87.9648 8.60156 89.4363 8.60156C89.5539 8.69003 89.6422 8.69003 89.7305 8.7195Z" fill="white"/>
<path id="Vector_4" d="M63.2148 24.2276H58.0646V22.9599C57.9763 22.9304 57.9175 22.9304 57.9175 22.9304C55.2982 25.5544 50.2657 24.9352 47.8229 21.6626C45.4979 18.5669 45.7337 13.3779 48.3823 10.6066C50.6775 8.21843 54.5329 7.65826 57.1227 9.39775C57.4169 9.60411 57.6817 9.83998 58.0351 10.1053V8.71965H63.2442L63.2148 24.2276ZM51.3252 16.4442C51.3252 18.4785 52.7672 19.9526 54.7388 19.9526C56.7108 19.9526 58.1528 18.5079 58.1528 16.4442C58.1528 14.3804 56.7402 12.9357 54.7388 12.9357C52.7378 12.9357 51.3252 14.4393 51.3252 16.4442Z" fill="white"/>
<path id="Vector_5" d="M97.1175 18.1843C97.7652 16.5038 98.3241 15.0297 98.9125 13.526C99.5014 12.0224 100.031 10.5483 100.649 9.07412C100.737 8.86776 100.914 8.74982 101.12 8.69083C102.65 8.66136 104.18 8.69083 105.74 8.69083C105.829 8.69083 105.917 8.72031 106.005 8.74982C105.947 8.95618 105.888 9.13307 105.829 9.30999C103.033 16.0026 100.207 22.7247 97.4117 29.4173C97.3234 29.8006 96.941 30.0365 96.5879 29.9775C95.1165 29.948 93.6745 29.9775 92.1144 29.9775C92.3207 29.4763 92.4972 29.0635 92.6738 28.6213C93.2622 27.2651 93.8804 25.9383 94.41 24.5821C94.5277 24.2873 94.5277 23.963 94.41 23.6681C92.409 18.8625 90.4076 14.0273 88.4066 9.251C88.3477 9.10359 88.2889 8.95618 88.2002 8.72031C88.436 8.72031 88.6125 8.69083 88.789 8.69083C90.1428 8.69083 91.4965 8.72031 92.8503 8.69083C93.2328 8.63189 93.5858 8.89723 93.6745 9.251C94.7042 11.9929 95.7932 14.7643 96.8527 17.5062C96.9115 17.6537 96.9704 17.8305 97.1175 18.1843Z" fill="white"/>
<path id="Vector_6" d="M110.096 8.33668H109.214V7.98291H111.45V8.33668H110.568V10.2531H110.067V8.33668H110.096Z" fill="white"/>
<path id="Vector_7" d="M111.686 7.95312H112.392L113.216 9.72209L114.011 7.95312H114.717V10.2233H114.246L114.275 8.33641L113.422 10.2233H113.01L112.157 8.33641L112.186 10.2233H111.715V7.95312H111.686Z" fill="white"/>
</g>
<g id="Group 773">
<path id="Vector_8" d="M12.949 11.2848V3.20654H0C0 3.29499 0 3.35396 0 3.41292C0 6.27276 0.941743 9.04417 2.70751 11.2848H12.949Z" fill="#7DCBC1"/>
<path id="Vector_9" d="M13.0078 11.2847V21.3678C15.2739 23.2252 18.1285 24.2571 21.0715 24.2571H21.2481V11.2847H13.0078Z" fill="#FF5E00"/>
<path id="Vector_10" d="M9.00602 15.6186C6.53391 14.8521 4.32672 13.319 2.73752 11.2847H0.0888672C0.0888672 11.3436 0.0888672 11.4026 0.0888672 11.4616C0.0888672 18.508 5.79819 24.2571 12.8318 24.2571H13.0084V21.3678C11.1544 19.8642 9.77115 17.8888 9.00602 15.6186Z" fill="#015C9A"/>
<path id="Vector_11" d="M9.00494 15.6186C8.53405 14.2919 8.29865 12.8768 8.29865 11.4616C8.29865 11.4026 8.29865 11.3436 8.29865 11.2847H2.70703C4.32565 13.3485 6.50342 14.8521 9.00494 15.6186Z" fill="#00BDCF"/>
<path id="Vector_12" d="M17.7468 9.19158C19.3949 9.19158 20.7192 7.86484 20.7192 6.2138V3.20654H17.7468C16.0987 3.20654 14.7744 4.53327 14.7744 6.18431C14.7744 7.83537 16.0987 9.19158 17.7468 9.19158Z" fill="#7DCBC1"/>
<path id="Vector_13" d="M12.9487 11.2847H8.29883C8.29883 11.3436 8.29883 11.4026 8.29883 11.4616C8.29883 15.2944 10.0352 18.9502 13.0075 21.3678V11.2847H12.9487Z" fill="#FF3A00"/>
</g>
</g>
</g>
</g>
</g>
<defs>
<clipPath id="clip0_3708_11542">
<rect width="116" height="32" fill="white"/>
</clipPath>
</defs>
</svg>
